<svg width="6" height="10" viewBox="0 0 6 10" fill="none" xmlns="http://www.w3.org/2000/svg">
<path d="M1.32324 0.30957C1.04349 0.0299612 0.590378 0.0300595 0.310547 0.30957C0.0310688 0.589048 0.0308439 1.04135 0.30957 1.32129L3.85938 4.54199L3.94043 4.61621L3.85938 4.69043L0.306641 7.91309C0.0301399 8.19318 0.0308516 8.64411 0.30957 8.92285C0.589425 9.20271 1.04339 9.20271 1.32324 8.92285L1.32617 8.91895L5.45605 5.17383H5.45508C5.60552 5.02339 5.67259 4.82211 5.66016 4.62305L5.75977 4.61621L5.65918 4.62305L5.66016 4.61035C5.67259 4.41279 5.60694 4.21262 5.45898 4.0625L1.32715 0.313477H1.32617L1.32324 0.30957Z" fill="black" stroke="#000967" stroke-width="0.2"/>
</svg>
