<svg width="17" height="15" viewBox="0 0 17 15" fill="none" xmlns="http://www.w3.org/2000/svg">
<path fill-rule="evenodd" clip-rule="evenodd" d="M7.26923 14.5385C3.25939 14.5385 0 11.2787 0 7.26923C0 3.25978 3.25939 0 7.26923 0C9.10781 0 10.8334 0.667661 12.1777 1.90009C11.7296 2.16574 11.2977 2.45766 10.8841 2.77432C9.86079 1.94786 8.58461 1.49802 7.26923 1.50011C4.09146 1.50011 1.50011 4.09146 1.50011 7.26923C1.50011 10.447 4.09146 13.038 7.26923 13.038C11.6906 13.038 14.3156 8.31173 12.414 4.63727C12.7881 4.28928 13.1755 3.95585 13.5753 3.63771C14.2116 4.7363 14.5385 5.98226 14.5385 7.26884C14.5385 11.2787 11.2791 14.5385 7.26923 14.5385Z" fill="#F16700"/>
<path fill-rule="evenodd" clip-rule="evenodd" d="M7.4602 11.0056C7.42179 11.0051 7.38443 10.9931 7.35282 10.9713C7.32122 10.9494 7.2968 10.9187 7.28265 10.883C7.26911 10.8559 6.09625 7.82788 4.28243 6.6821C3.92771 6.46393 3.65499 6.23222 3.76408 5.71387C3.87316 5.20945 4.21396 4.92281 4.82785 4.78665C5.9187 4.55456 7.09194 6.24576 7.52789 6.94127C9.05586 4.71857 12.1106 1.22708 16.5568 0.817818C16.7711 0.792674 16.8508 1.11064 16.6523 1.19961C16.5843 1.22669 10.2287 4.13175 7.6509 10.8966C7.63164 10.93 7.60383 10.9577 7.57032 10.9769C7.53681 10.9961 7.4988 11.006 7.4602 11.0056Z" fill="#F16700"/>
</svg>