<svg width="17" height="17" viewBox="0 0 17 17" fill="none" xmlns="http://www.w3.org/2000/svg">
<path d="M3.86263 5.52384V17H0.210286V5.52384H3.86263ZM4.09505 1.98025C4.10243 2.54382 3.91612 3.01476 3.53613 3.39305C3.15614 3.77134 2.65625 3.96049 2.03646 3.96049H2.01432C1.40929 3.96049 0.922309 3.77134 0.553385 3.39305C0.184462 3.01476 0 2.54382 0 1.98025C0 1.40895 0.189996 0.936081 0.569987 0.561649C0.949978 0.187216 1.44618 0 2.05859 0C2.67101 0 3.16168 0.187216 3.5306 0.561649C3.89952 0.936081 4.08767 1.40895 4.09505 1.98025ZM17 10.4223V17H13.3587V10.8624C13.3587 10.0518 13.2093 9.41678 12.9105 8.95743C12.6117 8.49807 12.145 8.26839 11.5104 8.26839C11.0456 8.26839 10.6564 8.40157 10.3428 8.66792C10.0292 8.93426 9.79492 9.26431 9.63997 9.65804C9.55881 9.88965 9.51823 10.2023 9.51823 10.596V17H5.87695C5.89171 13.9196 5.89909 11.4221 5.89909 9.50749C5.89909 7.59287 5.8954 6.45027 5.88802 6.0797L5.87695 5.52384H9.51823V7.19142H9.49609C9.64366 6.94437 9.79492 6.7282 9.94987 6.54292C10.1048 6.35763 10.3133 6.1569 10.5752 5.94074C10.8371 5.72457 11.1581 5.55665 11.5381 5.43699C11.9181 5.31732 12.3405 5.25749 12.8053 5.25749C14.0671 5.25749 15.0816 5.69562 15.849 6.57187C16.6163 7.44812 17 8.73161 17 10.4223Z" fill="#785B46"/>
</svg>
