<svg width="17" height="17" viewBox="0 0 17 17" fill="none" xmlns="http://www.w3.org/2000/svg">
<path d="M14.0547 0.221343C15.1372 -0.142817 16.2007 0.920671 15.8366 2.00325L11.4582 15.0084C11.094 16.0924 9.70383 16.1885 9.06389 15.3379L6.73751 12.2478C6.41649 11.8221 6.35355 11.2458 6.6067 10.7678C6.67812 10.6342 6.88601 10.3118 7.14976 9.91365C7.42199 9.50283 7.77272 8.98098 8.15031 8.4252C8.50952 7.89345 8.89348 7.3313 9.25199 6.80592C8.72661 7.16442 8.16445 7.54838 7.632 7.9083C7.07763 8.28448 6.55508 8.63591 6.14425 8.90815C5.86532 9.09813 5.58045 9.27924 5.29007 9.45121C5.05625 9.57189 4.79299 9.62373 4.53087 9.60069C4.26876 9.57766 4.01857 9.48071 3.80938 9.3211L0.719328 6.99472C-0.130615 6.35408 -0.0344481 4.96391 1.04955 4.59975L14.0547 0.221343ZM14.8883 1.68435C14.9887 1.38595 14.672 1.06916 14.3736 1.16957L1.36916 5.54727C1.31029 5.56551 1.2582 5.60089 1.21954 5.64887C1.18087 5.69686 1.15738 5.75528 1.15208 5.81668C1.14406 5.88924 1.15556 5.96263 1.1854 6.02926C1.21523 6.09589 1.26231 6.15334 1.32178 6.19569L4.41184 8.52207C4.46899 8.56693 4.53753 8.59494 4.60974 8.60294C4.68196 8.61093 4.75497 8.5986 4.82055 8.56732C4.90116 8.5249 5.17339 8.35166 5.592 8.07447C5.99859 7.80506 6.5176 7.45575 7.07127 7.08028C8.1793 6.33004 9.42381 5.47727 10.1854 4.95472L10.1967 4.94623C10.2886 4.88259 10.3756 4.8239 10.4463 4.78147C10.4816 4.76026 10.5333 4.73127 10.5905 4.70794C10.6981 4.66414 10.8166 4.65427 10.9299 4.67965C11.0389 4.70512 11.1385 4.76053 11.2176 4.83962C11.2967 4.91871 11.3521 5.01834 11.3775 5.12725C11.4029 5.24062 11.3931 5.35905 11.3493 5.46666C11.3288 5.51714 11.3042 5.56585 11.2757 5.61232C11.2235 5.6969 11.1688 5.77991 11.1117 5.86123L11.1032 5.87254C10.5813 6.6348 9.72787 7.8786 8.97763 8.98664C8.60215 9.5403 8.25355 10.0586 7.98344 10.4659C7.70625 10.8845 7.53301 11.1567 7.49058 11.2374C7.45931 11.3029 7.44697 11.3759 7.45497 11.4482C7.46296 11.5204 7.49097 11.5889 7.53584 11.6461L9.86222 14.7361C9.90456 14.7956 9.96202 14.8427 10.0286 14.8725C10.0953 14.9023 10.1687 14.9138 10.2412 14.9058C10.3678 14.891 10.4675 14.8167 10.5113 14.6895L14.8883 1.68435Z" fill="white" stroke="white" stroke-width="0.3"/>
</svg>
